STARTFONT 2.1
FONT -URW-ITC Bookman-Light-R-Normal--8-80-72-72-P-46-ISO8859-1
SIZE 8 72 72
FONTBOUNDINGBOX 14 10 -3 -2

STARTPROPERTIES 22
FONTNAME_REGISTRY "-"
FOUNDRY "URW"
FAMILY_NAME "ITC Bookman"
WEIGHT_NAME "Light"
SLANT "R"
SETWIDTH_NAME "Normal"
ADD_STYLE_NAME ""
PIXEL_SIZE 8
POINT_SIZE 80
RESOLUTION_X 72
RESOLUTION_Y 72
SPACING "P"
CHARSET_REGISTRY "ISO8859"
CHARSET_ENCODING "1"
FULL_NAME "Bookman-Light"
AVERAGE_WIDTH 46
WEIGHT 10
X_HEIGHT 4
QUAD_WIDTH 6
DEFAULT_CHAR 32
FONT_DESCENT 2
FONT_ASCENT 8
ENDPROPERTIES

CHARS 190

STARTCHAR space
ENCODING 32
SWIDTH 320 0
DWIDTH 3 0
BBX 1 1 0 0
BITMAP
00
ENDCHAR

STARTCHAR exclam
ENCODING 33
SWIDTH 300 0
DWIDTH 2 0
BBX 1 6 1 0
BITMAP
80
80
80
80
80
80
ENDCHAR

STARTCHAR quotedbl
ENCODING 34
SWIDTH 380 0
DWIDTH 3 0
BBX 2 2 1 4
BITMAP
C0
C0
ENDCHAR

STARTCHAR numbersign
ENCODING 35
SWIDTH 620 0
DWIDTH 5 0
BBX 4 6 0 0
BITMAP
50
50
F0
F0
A0
A0
ENDCHAR

STARTCHAR dollar
ENCODING 36
SWIDTH 620 0
DWIDTH 5 0
BBX 5 8 0 -1
BITMAP
20
78
A0
60
30
28
F8
20
ENDCHAR

STARTCHAR percent
ENCODING 37
SWIDTH 900 0
DWIDTH 7 0
BBX 7 6 0 0
BITMAP
E4
A8
BE
FA
2A
4E
ENDCHAR

STARTCHAR ampersand
ENCODING 38
SWIDTH 800 0
DWIDTH 6 0
BBX 6 6 0 0
BITMAP
70
50
7C
98
88
7C
ENDCHAR

STARTCHAR quoteright
ENCODING 39
SWIDTH 220 0
DWIDTH 2 0
BBX 1 2 0 4
BITMAP
80
80
ENDCHAR

STARTCHAR parenleft
ENCODING 40
SWIDTH 300 0
DWIDTH 2 0
BBX 2 7 0 -1
BITMAP
40
80
80
80
80
80
40
ENDCHAR

STARTCHAR parenright
ENCODING 41
SWIDTH 300 0
DWIDTH 2 0
BBX 2 7 0 -1
BITMAP
80
40
40
40
40
40
80
ENDCHAR

STARTCHAR asterisk
ENCODING 42
SWIDTH 440 0
DWIDTH 4 0
BBX 3 3 0 3
BITMAP
40
E0
E0
ENDCHAR

STARTCHAR plus
ENCODING 43
SWIDTH 600 0
DWIDTH 5 0
BBX 5 5 0 1
BITMAP
20
20
F8
20
20
ENDCHAR

STARTCHAR comma
ENCODING 44
SWIDTH 320 0
DWIDTH 3 0
BBX 1 2 1 -1
BITMAP
80
80
ENDCHAR

STARTCHAR minus
ENCODING 45
SWIDTH 600 0
DWIDTH 5 0
BBX 4 1 0 2
BITMAP
F0
ENDCHAR

STARTCHAR period
ENCODING 46
SWIDTH 320 0
DWIDTH 3 0
BBX 1 1 1 0
BITMAP
80
ENDCHAR

STARTCHAR slash
ENCODING 47
SWIDTH 600 0
DWIDTH 5 0
BBX 4 7 1 -1
BITMAP
10
20
20
40
40
C0
80
ENDCHAR

STARTCHAR zero
ENCODING 48
SWIDTH 620 0
DWIDTH 5 0
BBX 5 6 0 0
BITMAP
70
88
88
88
88
70
ENDCHAR

STARTCHAR one
ENCODING 49
SWIDTH 620 0
DWIDTH 5 0
BBX 3 6 1 0
BITMAP
C0
40
40
40
40
E0
ENDCHAR

STARTCHAR two
ENCODING 50
SWIDTH 620 0
DWIDTH 5 0
BBX 4 6 0 0
BITMAP
F0
90
10
20
60
F0
ENDCHAR

STARTCHAR three
ENCODING 51
SWIDTH 620 0
DWIDTH 5 0
BBX 4 6 0 0
BITMAP
F0
90
70
10
90
E0
ENDCHAR

STARTCHAR four
ENCODING 52
SWIDTH 620 0
DWIDTH 5 0
BBX 5 6 0 0
BITMAP
30
70
50
F8
10
38
ENDCHAR

STARTCHAR five
ENCODING 53
SWIDTH 620 0
DWIDTH 5 0
BBX 4 6 1 0
BITMAP
E0
80
E0
10
10
E0
ENDCHAR

STARTCHAR six
ENCODING 54
SWIDTH 620 0
DWIDTH 5 0
BBX 4 6 1 0
BITMAP
70
80
E0
90
90
60
ENDCHAR

STARTCHAR seven
ENCODING 55
SWIDTH 620 0
DWIDTH 5 0
BBX 4 6 1 0
BITMAP
F0
B0
20
40
40
40
ENDCHAR

STARTCHAR eight
ENCODING 56
SWIDTH 620 0
DWIDTH 5 0
BBX 5 6 0 0
BITMAP
70
88
70
88
88
70
ENDCHAR

STARTCHAR nine
ENCODING 57
SWIDTH 620 0
DWIDTH 5 0
BBX 4 6 0 0
BITMAP
60
90
90
F0
10
E0
ENDCHAR

STARTCHAR colon
ENCODING 58
SWIDTH 320 0
DWIDTH 3 0
BBX 1 4 1 0
BITMAP
80
00
00
80
ENDCHAR

STARTCHAR semicolon
ENCODING 59
SWIDTH 320 0
DWIDTH 3 0
BBX 1 5 1 -1
BITMAP
80
00
00
80
80
ENDCHAR

STARTCHAR less
ENCODING 60
SWIDTH 600 0
DWIDTH 5 0
BBX 4 4 0 0
BITMAP
30
E0
E0
30
ENDCHAR

STARTCHAR equal
ENCODING 61
SWIDTH 600 0
DWIDTH 5 0
BBX 4 2 0 2
BITMAP
F0
F0
ENDCHAR

STARTCHAR greater
ENCODING 62
SWIDTH 600 0
DWIDTH 5 0
BBX 4 4 0 0
BITMAP
C0
70
70
C0
ENDCHAR

STARTCHAR question
ENCODING 63
SWIDTH 540 0
DWIDTH 4 0
BBX 4 6 0 0
BITMAP
60
90
90
20
40
40
ENDCHAR

STARTCHAR at
ENCODING 64
SWIDTH 820 0
DWIDTH 7 0
BBX 6 6 0 0
BITMAP
78
B4
D4
D4
AC
78
ENDCHAR

STARTCHAR A
ENCODING 65
SWIDTH 680 0
DWIDTH 5 0
BBX 6 6 0 0
BITMAP
30
30
50
78
48
CC
ENDCHAR

STARTCHAR B
ENCODING 66
SWIDTH 740 0
DWIDTH 6 0
BBX 6 6 0 0
BITMAP
FC
44
78
44
44
F8
ENDCHAR

STARTCHAR C
ENCODING 67
SWIDTH 740 0
DWIDTH 6 0
BBX 5 6 0 0
BITMAP
78
C8
80
80
C0
78
ENDCHAR

STARTCHAR D
ENCODING 68
SWIDTH 800 0
DWIDTH 6 0
BBX 6 6 0 0
BITMAP
F8
4C
44
44
4C
F8
ENDCHAR

STARTCHAR E
ENCODING 69
SWIDTH 720 0
DWIDTH 6 0
BBX 6 6 0 0
BITMAP
FC
40
70
44
44
F8
ENDCHAR

STARTCHAR F
ENCODING 70
SWIDTH 640 0
DWIDTH 5 0
BBX 6 6 0 0
BITMAP
FC
40
70
40
40
E0
ENDCHAR

STARTCHAR G
ENCODING 71
SWIDTH 800 0
DWIDTH 6 0
BBX 6 6 0 0
BITMAP
78
C8
88
9C
88
78
ENDCHAR

STARTCHAR H
ENCODING 72
SWIDTH 800 0
DWIDTH 6 0
BBX 7 6 0 0
BITMAP
EE
44
7C
44
44
EE
ENDCHAR

STARTCHAR I
ENCODING 73
SWIDTH 340 0
DWIDTH 3 0
BBX 3 6 0 0
BITMAP
E0
40
40
40
40
E0
ENDCHAR

STARTCHAR J
ENCODING 74
SWIDTH 600 0
DWIDTH 5 0
BBX 5 6 0 0
BITMAP
38
10
10
90
90
70
ENDCHAR

STARTCHAR K
ENCODING 75
SWIDTH 720 0
DWIDTH 6 0
BBX 7 6 0 0
BITMAP
EE
48
50
78
44
EE
ENDCHAR

STARTCHAR L
ENCODING 76
SWIDTH 600 0
DWIDTH 5 0
BBX 5 6 0 0
BITMAP
E0
40
40
48
48
F0
ENDCHAR

STARTCHAR M
ENCODING 77
SWIDTH 920 0
DWIDTH 7 0
BBX 8 6 0 0
BITMAP
E3
66
66
5A
5A
F7
ENDCHAR

STARTCHAR N
ENCODING 78
SWIDTH 740 0
DWIDTH 6 0
BBX 7 6 0 0
BITMAP
EE
64
54
5C
4C
E4
ENDCHAR

STARTCHAR O
ENCODING 79
SWIDTH 800 0
DWIDTH 6 0
BBX 6 6 0 0
BITMAP
78
CC
84
84
CC
78
ENDCHAR

STARTCHAR P
ENCODING 80
SWIDTH 620 0
DWIDTH 5 0
BBX 5 6 0 0
BITMAP
F0
48
48
70
40
E0
ENDCHAR

STARTCHAR Q
ENCODING 81
SWIDTH 820 0
DWIDTH 7 0
BBX 6 8 0 -2
BITMAP
78
CC
84
84
BC
FC
84
78
ENDCHAR

STARTCHAR R
ENCODING 82
SWIDTH 720 0
DWIDTH 6 0
BBX 7 6 0 0
BITMAP
F8
44
7C
48
44
E6
ENDCHAR

STARTCHAR S
ENCODING 83
SWIDTH 660 0
DWIDTH 5 0
BBX 5 6 0 0
BITMAP
F8
88
F0
98
88
F0
ENDCHAR

STARTCHAR T
ENCODING 84
SWIDTH 620 0
DWIDTH 5 0
BBX 5 6 0 0
BITMAP
F8
A8
20
20
20
70
ENDCHAR

STARTCHAR U
ENCODING 85
SWIDTH 780 0
DWIDTH 6 0
BBX 7 6 0 0
BITMAP
EE
44
44
44
44
3C
ENDCHAR

STARTCHAR V
ENCODING 86
SWIDTH 700 0
DWIDTH 6 0
BBX 6 6 0 0
BITMAP
CC
44
48
28
30
30
ENDCHAR

STARTCHAR W
ENCODING 87
SWIDTH 960 0
DWIDTH 8 0
BBX 8 6 0 0
BITMAP
DB
49
5A
5A
3A
24
ENDCHAR

STARTCHAR X
ENCODING 88
SWIDTH 720 0
DWIDTH 6 0
BBX 6 6 0 0
BITMAP
EC
68
30
38
48
CC
ENDCHAR

STARTCHAR Y
ENCODING 89
SWIDTH 640 0
DWIDTH 5 0
BBX 5 6 0 0
BITMAP
D8
50
50
20
20
70
ENDCHAR

STARTCHAR Z
ENCODING 90
SWIDTH 640 0
DWIDTH 5 0
BBX 5 6 0 0
BITMAP
F8
90
20
20
48
F8
ENDCHAR

STARTCHAR bracketleft
ENCODING 91
SWIDTH 300 0
DWIDTH 2 0
BBX 2 7 0 -1
BITMAP
C0
80
80
80
80
80
C0
ENDCHAR

STARTCHAR backslash
ENCODING 92
SWIDTH 600 0
DWIDTH 5 0
BBX 4 7 1 -1
BITMAP
80
C0
40
40
20
20
10
ENDCHAR

STARTCHAR bracketright
ENCODING 93
SWIDTH 300 0
DWIDTH 2 0
BBX 2 7 0 -1
BITMAP
C0
40
40
40
40
40
C0
ENDCHAR

STARTCHAR asciicircum
ENCODING 94
SWIDTH 600 0
DWIDTH 5 0
BBX 4 3 0 3
BITMAP
60
60
90
ENDCHAR

STARTCHAR underscore
ENCODING 95
SWIDTH 500 0
DWIDTH 4 0
BBX 4 1 0 -1
BITMAP
F0
ENDCHAR

STARTCHAR quoteleft
ENCODING 96
SWIDTH 220 0
DWIDTH 2 0
BBX 1 2 0 4
BITMAP
80
80
ENDCHAR

STARTCHAR a
ENCODING 97
SWIDTH 580 0
DWIDTH 5 0
BBX 5 4 0 0
BITMAP
70
90
90
F8
ENDCHAR

STARTCHAR b
ENCODING 98
SWIDTH 620 0
DWIDTH 5 0
BBX 5 7 0 0
BITMAP
C0
40
40
70
48
48
70
ENDCHAR

STARTCHAR c
ENCODING 99
SWIDTH 520 0
DWIDTH 4 0
BBX 4 4 0 0
BITMAP
70
90
90
70
ENDCHAR

STARTCHAR d
ENCODING 100
SWIDTH 620 0
DWIDTH 5 0
BBX 5 7 0 0
BITMAP
30
10
10
70
90
90
78
ENDCHAR

STARTCHAR e
ENCODING 101
SWIDTH 520 0
DWIDTH 4 0
BBX 4 4 0 0
BITMAP
60
F0
90
70
ENDCHAR

STARTCHAR f
ENCODING 102
SWIDTH 320 0
DWIDTH 3 0
BBX 4 7 0 0
BITMAP
30
40
40
E0
40
40
E0
ENDCHAR

STARTCHAR g
ENCODING 103
SWIDTH 540 0
DWIDTH 4 0
BBX 4 6 0 -2
BITMAP
F0
90
F0
F0
90
E0
ENDCHAR

STARTCHAR h
ENCODING 104
SWIDTH 660 0
DWIDTH 5 0
BBX 6 7 0 0
BITMAP
C0
40
40
78
48
48
FC
ENDCHAR

STARTCHAR i
ENCODING 105
SWIDTH 300 0
DWIDTH 2 0
BBX 3 7 0 0
BITMAP
40
00
00
C0
40
40
E0
ENDCHAR

STARTCHAR j
ENCODING 106
SWIDTH 300 0
DWIDTH 2 0
BBX 3 9 0 -2
BITMAP
20
00
00
60
20
20
20
20
E0
ENDCHAR

STARTCHAR k
ENCODING 107
SWIDTH 620 0
DWIDTH 5 0
BBX 5 7 0 0
BITMAP
C0
40
40
58
70
50
F8
ENDCHAR

STARTCHAR l
ENCODING 108
SWIDTH 300 0
DWIDTH 2 0
BBX 3 7 0 0
BITMAP
C0
40
40
40
40
40
E0
ENDCHAR

STARTCHAR m
ENCODING 109
SWIDTH 940 0
DWIDTH 8 0
BBX 9 4 0 0
BITMAP
FF00
4900
4900
FF80
ENDCHAR

STARTCHAR n
ENCODING 110
SWIDTH 660 0
DWIDTH 5 0
BBX 6 4 0 0
BITMAP
F8
48
48
FC
ENDCHAR

STARTCHAR o
ENCODING 111
SWIDTH 560 0
DWIDTH 4 0
BBX 4 4 0 0
BITMAP
60
90
90
60
ENDCHAR

STARTCHAR p
ENCODING 112
SWIDTH 620 0
DWIDTH 5 0
BBX 5 6 0 -2
BITMAP
F0
48
48
70
40
E0
ENDCHAR

STARTCHAR q
ENCODING 113
SWIDTH 580 0
DWIDTH 5 0
BBX 5 6 0 -2
BITMAP
70
90
90
70
10
38
ENDCHAR

STARTCHAR r
ENCODING 114
SWIDTH 440 0
DWIDTH 4 0
BBX 4 4 0 0
BITMAP
F0
40
40
E0
ENDCHAR

STARTCHAR s
ENCODING 115
SWIDTH 520 0
DWIDTH 4 0
BBX 4 4 0 0
BITMAP
F0
E0
10
F0
ENDCHAR

STARTCHAR t
ENCODING 116
SWIDTH 380 0
DWIDTH 3 0
BBX 4 6 0 0
BITMAP
40
40
E0
40
40
70
ENDCHAR

STARTCHAR u
ENCODING 117
SWIDTH 680 0
DWIDTH 5 0
BBX 6 4 0 0
BITMAP
D8
48
48
7C
ENDCHAR

STARTCHAR v
ENCODING 118
SWIDTH 520 0
DWIDTH 4 0
BBX 4 4 0 0
BITMAP
D0
50
50
20
ENDCHAR

STARTCHAR w
ENCODING 119
SWIDTH 780 0
DWIDTH 6 0
BBX 7 4 0 0
BITMAP
F6
54
74
68
ENDCHAR

STARTCHAR x
ENCODING 120
SWIDTH 560 0
DWIDTH 4 0
BBX 5 4 0 0
BITMAP
D8
60
50
D8
ENDCHAR

STARTCHAR y
ENCODING 121
SWIDTH 540 0
DWIDTH 4 0
BBX 5 6 0 -2
BITMAP
D8
50
50
20
20
C0
ENDCHAR

STARTCHAR z
ENCODING 122
SWIDTH 480 0
DWIDTH 4 0
BBX 3 4 0 0
BITMAP
E0
20
40
E0
ENDCHAR

STARTCHAR braceleft
ENCODING 123
SWIDTH 280 0
DWIDTH 2 0
BBX 3 7 0 -1
BITMAP
60
40
40
C0
40
40
60
ENDCHAR

STARTCHAR bar
ENCODING 124
SWIDTH 600 0
DWIDTH 5 0
BBX 1 6 2 0
BITMAP
80
80
80
80
80
80
ENDCHAR

STARTCHAR braceright
ENCODING 125
SWIDTH 280 0
DWIDTH 2 0
BBX 3 7 0 -1
BITMAP
C0
40
40
60
40
40
C0
ENDCHAR

STARTCHAR asciitilde
ENCODING 126
SWIDTH 600 0
DWIDTH 5 0
BBX 4 2 0 1
BITMAP
D0
B0
ENDCHAR

STARTCHAR exclamdown
ENCODING 161
SWIDTH 300 0
DWIDTH 2 0
BBX 1 6 1 -2
BITMAP
80
80
80
80
80
80
ENDCHAR

STARTCHAR cent
ENCODING 162
SWIDTH 620 0
DWIDTH 5 0
BBX 3 5 1 1
BITMAP
40
E0
C0
E0
40
ENDCHAR

STARTCHAR sterling
ENCODING 163
SWIDTH 620 0
DWIDTH 5 0
BBX 6 6 0 0
BITMAP
38
40
F0
40
E4
DC
ENDCHAR

STARTCHAR currency
ENCODING 164
SWIDTH 620 0
DWIDTH 5 0
BBX 4 4 0 1
BITMAP
F0
90
90
F0
ENDCHAR

STARTCHAR yen
ENCODING 165
SWIDTH 620 0
DWIDTH 5 0
BBX 6 6 0 0
BITMAP
DC
58
F8
F8
20
70
ENDCHAR

STARTCHAR brokenbar
ENCODING 166
SWIDTH 600 0
DWIDTH 5 0
BBX 1 6 2 0
BITMAP
80
80
00
80
80
80
ENDCHAR

STARTCHAR section
ENCODING 167
SWIDTH 520 0
DWIDTH 4 0
BBX 4 8 0 -2
BITMAP
70
90
40
A0
90
70
10
E0
ENDCHAR

STARTCHAR dieresis
ENCODING 168
SWIDTH 420 0
DWIDTH 3 0
BBX 2 1 1 5
BITMAP
C0
ENDCHAR

STARTCHAR copyright
ENCODING 169
SWIDTH 740 0
DWIDTH 6 0
BBX 6 6 0 0
BITMAP
78
B4
C4
C4
B4
78
ENDCHAR

STARTCHAR ordfeminine
ENCODING 170
SWIDTH 420 0
DWIDTH 3 0
BBX 4 4 0 2
BITMAP
E0
A0
F0
E0
ENDCHAR

STARTCHAR guillemotleft
ENCODING 171
SWIDTH 360 0
DWIDTH 3 0
BBX 2 3 0 1
BITMAP
C0
C0
C0
ENDCHAR

STARTCHAR logicalnot
ENCODING 172
SWIDTH 600 0
DWIDTH 5 0
BBX 4 3 0 1
BITMAP
F0
10
10
ENDCHAR

STARTCHAR hyphen
ENCODING 173
SWIDTH 400 0
DWIDTH 3 0
BBX 2 1 1 2
BITMAP
C0
ENDCHAR

STARTCHAR registered
ENCODING 174
SWIDTH 740 0
DWIDTH 6 0
BBX 7 6 0 0
BITMAP
7C
B2
AA
BA
AE
7C
ENDCHAR

STARTCHAR macron
ENCODING 175
SWIDTH 440 0
DWIDTH 4 0
BBX 2 1 1 5
BITMAP
C0
ENDCHAR

STARTCHAR degree
ENCODING 176
SWIDTH 400 0
DWIDTH 3 0
BBX 3 3 0 3
BITMAP
E0
A0
E0
ENDCHAR

STARTCHAR plusminus
ENCODING 177
SWIDTH 600 0
DWIDTH 5 0
BBX 5 4 0 0
BITMAP
20
F8
20
F8
ENDCHAR

STARTCHAR twosuperior
ENCODING 178
SWIDTH 372 0
DWIDTH 3 0
BBX 3 3 -3 3
BITMAP
C0
40
60
ENDCHAR

STARTCHAR threesuperior
ENCODING 179
SWIDTH 372 0
DWIDTH 3 0
BBX 3 3 -3 3
BITMAP
E0
20
E0
ENDCHAR

STARTCHAR acute
ENCODING 180
SWIDTH 340 0
DWIDTH 3 0
BBX 2 1 0 5
BITMAP
C0
ENDCHAR

STARTCHAR mu
ENCODING 181
SWIDTH 680 0
DWIDTH 5 0
BBX 6 6 0 -2
BITMAP
D8
48
48
7C
40
40
ENDCHAR

STARTCHAR paragraph
ENCODING 182
SWIDTH 600 0
DWIDTH 5 0
BBX 5 6 0 0
BITMAP
78
B0
B0
70
30
78
ENDCHAR

STARTCHAR periodcentered
ENCODING 183
SWIDTH 320 0
DWIDTH 4 0
BBX 1 1 2 2
BITMAP
80
ENDCHAR

STARTCHAR cedilla
ENCODING 184
SWIDTH 320 0
DWIDTH 3 0
BBX 2 2 0 -2
BITMAP
C0
C0
ENDCHAR

STARTCHAR onesuperior
ENCODING 185
SWIDTH 372 0
DWIDTH 3 0
BBX 3 3 -3 3
BITMAP
C0
40
E0
ENDCHAR

STARTCHAR ordmasculine
ENCODING 186
SWIDTH 420 0
DWIDTH 3 0
BBX 3 4 0 2
BITMAP
E0
A0
E0
E0
ENDCHAR

STARTCHAR guillemotright
ENCODING 187
SWIDTH 360 0
DWIDTH 3 0
BBX 2 3 0 1
BITMAP
C0
C0
C0
ENDCHAR

STARTCHAR onequarter
ENCODING 188
SWIDTH 930 0
DWIDTH 7 0
BBX 8 6 2 0
BITMAP
CC
58
56
E6
2F
42
ENDCHAR

STARTCHAR onehalf
ENCODING 189
SWIDTH 930 0
DWIDTH 7 0
BBX 7 6 2 0
BITMAP
CC
58
5E
E2
2C
4E
ENDCHAR

STARTCHAR threequarters
ENCODING 190
SWIDTH 930 0
DWIDTH 7 0
BBX 8 6 2 0
BITMAP
EC
78
32
E6
2F
42
ENDCHAR

STARTCHAR questiondown
ENCODING 191
SWIDTH 540 0
DWIDTH 4 0
BBX 4 6 0 -2
BITMAP
20
20
40
90
90
60
ENDCHAR

STARTCHAR Agrave
ENCODING 192
SWIDTH 680 0
DWIDTH 5 0
BBX 6 7 0 0
BITMAP
18
30
30
50
78
48
CC
ENDCHAR

STARTCHAR Aacute
ENCODING 193
SWIDTH 680 0
DWIDTH 5 0
BBX 6 7 0 0
BITMAP
20
30
30
50
78
48
CC
ENDCHAR

STARTCHAR Acircumflex
ENCODING 194
SWIDTH 680 0
DWIDTH 5 0
BBX 6 7 0 0
BITMAP
30
30
30
50
78
48
CC
ENDCHAR

STARTCHAR Atilde
ENCODING 195
SWIDTH 680 0
DWIDTH 5 0
BBX 6 7 0 0
BITMAP
64
B8
30
50
78
48
CC
ENDCHAR

STARTCHAR Adieresis
ENCODING 196
SWIDTH 680 0
DWIDTH 5 0
BBX 6 7 0 0
BITMAP
54
30
30
50
78
48
CC
ENDCHAR

STARTCHAR Aring
ENCODING 197
SWIDTH 680 0
DWIDTH 5 0
BBX 6 8 0 0
BITMAP
30
48
30
30
50
78
48
CC
ENDCHAR

STARTCHAR AE
ENCODING 198
SWIDTH 1260 0
DWIDTH 10 0
BBX 11 6 0 0
BITMAP
07E0
0A00
1F80
2220
4220
E7C0
ENDCHAR

STARTCHAR Ccedilla
ENCODING 199
SWIDTH 740 0
DWIDTH 6 0
BBX 5 8 0 -2
BITMAP
78
C8
80
80
C0
78
30
30
ENDCHAR

STARTCHAR Egrave
ENCODING 200
SWIDTH 720 0
DWIDTH 6 0
BBX 6 7 0 0
BITMAP
20
FC
40
70
44
44
F8
ENDCHAR

STARTCHAR Eacute
ENCODING 201
SWIDTH 720 0
DWIDTH 6 0
BBX 6 7 0 0
BITMAP
10
FC
40
70
44
44
F8
ENDCHAR

STARTCHAR Ecircumflex
ENCODING 202
SWIDTH 720 0
DWIDTH 6 0
BBX 6 7 0 0
BITMAP
30
FC
40
70
44
44
F8
ENDCHAR

STARTCHAR Edieresis
ENCODING 203
SWIDTH 720 0
DWIDTH 6 0
BBX 6 7 0 0
BITMAP
30
FC
40
70
44
44
F8
ENDCHAR

STARTCHAR Igrave
ENCODING 204
SWIDTH 340 0
DWIDTH 3 0
BBX 3 7 0 0
BITMAP
40
E0
40
40
40
40
E0
ENDCHAR

STARTCHAR Iacute
ENCODING 205
SWIDTH 340 0
DWIDTH 3 0
BBX 3 7 0 0
BITMAP
20
E0
40
40
40
40
E0
ENDCHAR

STARTCHAR Icircumflex
ENCODING 206
SWIDTH 340 0
DWIDTH 3 0
BBX 3 7 0 0
BITMAP
60
E0
40
40
40
40
E0
ENDCHAR

STARTCHAR Idieresis
ENCODING 207
SWIDTH 340 0
DWIDTH 3 0
BBX 3 7 0 0
BITMAP
60
E0
40
40
40
40
E0
ENDCHAR

STARTCHAR Eth
ENCODING 208
SWIDTH 800 0
DWIDTH 6 0
BBX 6 6 0 0
BITMAP
F8
4C
F4
44
4C
F8
ENDCHAR

STARTCHAR Ntilde
ENCODING 209
SWIDTH 740 0
DWIDTH 6 0
BBX 7 7 0 0
BITMAP
30
EE
64
54
5C
4C
E4
ENDCHAR

STARTCHAR Ograve
ENCODING 210
SWIDTH 800 0
DWIDTH 6 0
BBX 6 7 0 0
BITMAP
20
78
CC
84
84
CC
78
ENDCHAR

STARTCHAR Oacute
ENCODING 211
SWIDTH 800 0
DWIDTH 6 0
BBX 6 7 0 0
BITMAP
10
78
CC
84
84
CC
78
ENDCHAR

STARTCHAR Ocircumflex
ENCODING 212
SWIDTH 800 0
DWIDTH 6 0
BBX 6 7 0 0
BITMAP
30
78
CC
84
84
CC
78
ENDCHAR

STARTCHAR Otilde
ENCODING 213
SWIDTH 800 0
DWIDTH 6 0
BBX 6 7 0 0
BITMAP
30
78
CC
84
84
CC
78
ENDCHAR

STARTCHAR Odieresis
ENCODING 214
SWIDTH 800 0
DWIDTH 6 0
BBX 6 7 0 0
BITMAP
30
78
CC
84
84
CC
78
ENDCHAR

STARTCHAR multiply
ENCODING 215
SWIDTH 600 0
DWIDTH 5 0
BBX 3 3 1 1
BITMAP
A0
40
A0
ENDCHAR

STARTCHAR Oslash
ENCODING 216
SWIDTH 800 0
DWIDTH 6 0
BBX 7 6 0 0
BITMAP
7E
CC
8C
94
EC
78
ENDCHAR

STARTCHAR Ugrave
ENCODING 217
SWIDTH 780 0
DWIDTH 6 0
BBX 7 7 0 0
BITMAP
10
EE
44
44
44
44
3C
ENDCHAR

STARTCHAR Uacute
ENCODING 218
SWIDTH 780 0
DWIDTH 6 0
BBX 7 7 0 0
BITMAP
18
EE
44
44
44
44
3C
ENDCHAR

STARTCHAR Ucircumflex
ENCODING 219
SWIDTH 780 0
DWIDTH 6 0
BBX 7 7 0 0
BITMAP
18
EE
44
44
44
44
3C
ENDCHAR

STARTCHAR Udieresis
ENCODING 220
SWIDTH 780 0
DWIDTH 6 0
BBX 7 7 0 0
BITMAP
30
EE
44
44
44
44
3C
ENDCHAR

STARTCHAR Yacute
ENCODING 221
SWIDTH 640 0
DWIDTH 5 0
BBX 5 7 0 0
BITMAP
30
D8
50
50
20
20
70
ENDCHAR

STARTCHAR Thorn
ENCODING 222
SWIDTH 620 0
DWIDTH 5 0
BBX 5 6 0 0
BITMAP
E0
70
48
48
70
E0
ENDCHAR

STARTCHAR germandbls
ENCODING 223
SWIDTH 660 0
DWIDTH 5 0
BBX 6 8 0 -1
BITMAP
1C
24
28
6C
24
24
38
C0
ENDCHAR

STARTCHAR agrave
ENCODING 224
SWIDTH 580 0
DWIDTH 5 0
BBX 5 5 0 0
BITMAP
40
70
90
90
F8
ENDCHAR

STARTCHAR aacute
ENCODING 225
SWIDTH 580 0
DWIDTH 5 0
BBX 5 5 0 0
BITMAP
20
70
90
90
F8
ENDCHAR

STARTCHAR acircumflex
ENCODING 226
SWIDTH 580 0
DWIDTH 5 0
BBX 5 5 0 0
BITMAP
60
70
90
90
F8
ENDCHAR

STARTCHAR atilde
ENCODING 227
SWIDTH 580 0
DWIDTH 5 0
BBX 5 5 0 0
BITMAP
60
70
90
90
F8
ENDCHAR

STARTCHAR adieresis
ENCODING 228
SWIDTH 580 0
DWIDTH 5 0
BBX 5 5 0 0
BITMAP
60
70
90
90
F8
ENDCHAR

STARTCHAR aring
ENCODING 229
SWIDTH 580 0
DWIDTH 5 0
BBX 5 6 0 0
BITMAP
70
50
70
90
90
F8
ENDCHAR

STARTCHAR ae
ENCODING 230
SWIDTH 860 0
DWIDTH 7 0
BBX 6 4 0 0
BITMAP
FC
74
98
FC
ENDCHAR

STARTCHAR ccedilla
ENCODING 231
SWIDTH 520 0
DWIDTH 4 0
BBX 4 6 0 -2
BITMAP
70
90
90
70
60
60
ENDCHAR

STARTCHAR egrave
ENCODING 232
SWIDTH 520 0
DWIDTH 4 0
BBX 4 5 0 0
BITMAP
60
60
F0
90
70
ENDCHAR

STARTCHAR eacute
ENCODING 233
SWIDTH 520 0
DWIDTH 4 0
BBX 4 5 0 0
BITMAP
60
60
F0
90
70
ENDCHAR

STARTCHAR ecircumflex
ENCODING 234
SWIDTH 520 0
DWIDTH 4 0
BBX 4 5 0 0
BITMAP
60
60
F0
90
70
ENDCHAR

STARTCHAR edieresis
ENCODING 235
SWIDTH 520 0
DWIDTH 4 0
BBX 4 5 0 0
BITMAP
60
60
F0
90
70
ENDCHAR

STARTCHAR igrave
ENCODING 236
SWIDTH 300 0
DWIDTH 2 0
BBX 3 5 0 0
BITMAP
C0
C0
40
40
E0
ENDCHAR

STARTCHAR iacute
ENCODING 237
SWIDTH 300 0
DWIDTH 2 0
BBX 3 5 0 0
BITMAP
C0
C0
40
40
E0
ENDCHAR

STARTCHAR icircumflex
ENCODING 238
SWIDTH 300 0
DWIDTH 2 0
BBX 3 5 0 0
BITMAP
C0
C0
40
40
E0
ENDCHAR

STARTCHAR idieresis
ENCODING 239
SWIDTH 300 0
DWIDTH 2 0
BBX 3 5 0 0
BITMAP
C0
C0
40
40
E0
ENDCHAR

STARTCHAR eth
ENCODING 240
SWIDTH 560 0
DWIDTH 4 0
BBX 4 6 0 0
BITMAP
E0
A0
70
90
90
60
ENDCHAR

STARTCHAR ntilde
ENCODING 241
SWIDTH 660 0
DWIDTH 5 0
BBX 6 5 0 0
BITMAP
30
F8
48
48
FC
ENDCHAR

STARTCHAR ograve
ENCODING 242
SWIDTH 560 0
DWIDTH 4 0
BBX 4 5 0 0
BITMAP
60
60
90
90
60
ENDCHAR

STARTCHAR oacute
ENCODING 243
SWIDTH 560 0
DWIDTH 4 0
BBX 4 5 0 0
BITMAP
60
60
90
90
60
ENDCHAR

STARTCHAR ocircumflex
ENCODING 244
SWIDTH 560 0
DWIDTH 4 0
BBX 4 5 0 0
BITMAP
60
60
90
90
60
ENDCHAR

STARTCHAR otilde
ENCODING 245
SWIDTH 560 0
DWIDTH 4 0
BBX 4 5 0 0
BITMAP
60
60
90
90
60
ENDCHAR

STARTCHAR odieresis
ENCODING 246
SWIDTH 560 0
DWIDTH 4 0
BBX 4 5 0 0
BITMAP
60
60
90
90
60
ENDCHAR

STARTCHAR divide
ENCODING 247
SWIDTH 600 0
DWIDTH 5 0
BBX 5 5 0 1
BITMAP
20
00
F8
00
20
ENDCHAR

STARTCHAR oslash
ENCODING 248
SWIDTH 560 0
DWIDTH 4 0
BBX 5 4 0 0
BITMAP
78
B0
D0
E0
ENDCHAR

STARTCHAR ugrave
ENCODING 249
SWIDTH 680 0
DWIDTH 5 0
BBX 6 5 0 0
BITMAP
30
D8
48
48
7C
ENDCHAR

STARTCHAR uacute
ENCODING 250
SWIDTH 680 0
DWIDTH 5 0
BBX 6 5 0 0
BITMAP
30
D8
48
48
7C
ENDCHAR

STARTCHAR ucircumflex
ENCODING 251
SWIDTH 680 0
DWIDTH 5 0
BBX 6 5 0 0
BITMAP
30
D8
48
48
7C
ENDCHAR

STARTCHAR udieresis
ENCODING 252
SWIDTH 680 0
DWIDTH 5 0
BBX 6 5 0 0
BITMAP
30
D8
48
48
7C
ENDCHAR

STARTCHAR yacute
ENCODING 253
SWIDTH 540 0
DWIDTH 4 0
BBX 5 7 0 -2
BITMAP
60
D8
50
50
20
20
C0
ENDCHAR

STARTCHAR thorn
ENCODING 254
SWIDTH 620 0
DWIDTH 5 0
BBX 5 8 0 -2
BITMAP
C0
40
70
48
48
70
40
E0
ENDCHAR

STARTCHAR ydieresis
ENCODING 255
SWIDTH 540 0
DWIDTH 4 0
BBX 5 7 0 -2
BITMAP
60
D8
50
50
20
20
C0
ENDCHAR
ENDFONT
